<?xml version="1.0" encoding="UTF-8" standalone="no"?>
<!-- Creator: CorelDRAW X5 -->

<svg
   xml:space="preserve"
   width="39mm"
   height="50mm"
   style="clip-rule:evenodd;fill-rule:evenodd;image-rendering:optimizeQuality;shape-rendering:geometricPrecision;text-rendering:geometricPrecision"
   viewBox="0 0 39 50"
   version="1.1"
   id="svg187"
   sodipodi:docname="1 logo_agh.svg"
   inkscape:version="1.1 (c68e22c387, 2021-05-23)"
   xmlns:inkscape="http://www.inkscape.org/namespaces/inkscape"
   xmlns:sodipodi="http://sodipodi.sourceforge.net/DTD/sodipodi-0.dtd"
   xmlns="http://www.w3.org/2000/svg"
   xmlns:svg="http://www.w3.org/2000/svg"><sodipodi:namedview
   id="namedview189"
   pagecolor="#ffffff"
   bordercolor="#666666"
   borderopacity="1.0"
   inkscape:pageshadow="2"
   inkscape:pageopacity="0.0"
   inkscape:pagecheckerboard="0"
   inkscape:document-units="mm"
   showgrid="false"
   inkscape:zoom="0.57130401"
   inkscape:cx="306.31677"
   inkscape:cy="105.89808"
   inkscape:window-width="1920"
   inkscape:window-height="1137"
   inkscape:window-x="1272"
   inkscape:window-y="-8"
   inkscape:window-maximized="1"
   inkscape:current-layer="Warstwa_x0020_1" />
 <defs
   id="defs4">
  <style
   type="text/css"
   id="style2">
   <![CDATA[
    .fil7 {fill:#006E3F}
    .fil5 {fill:#2B2A29}
    .fil6 {fill:#AF212E}
    .fil4 {fill:#2E95C7;fill-rule:nonzero}
    .fil0 {fill:#4F4F4E;fill-rule:nonzero}
    .fil2 {fill:#59A54C;fill-rule:nonzero}
    .fil1 {fill:#898989;fill-rule:nonzero}
    .fil3 {fill:#BCBDBD;fill-rule:nonzero}
   ]]>
  </style>
 </defs>
 <g
   id="Warstwa_x0020_1"
   inkscape:label="Warstwa 1"
   inkscape:groupmode="layer">
  <metadata
   id="CorelCorpID_0Corel-Layer" />
  
  
  
  
  
  
  
  
  
  
  
  
  
  
  
  
  
  
  
  
  
  
  
  
  
  
  
  
  
  
  
  
  
  
  
  
  
  
  
  
  
  
  
  
  
  
  
  
  
  
  
  
  
  
  
  
  
  
  
  
  
  
  
  
  
  
  
  
  
  
  
  
  
  
  
  
  
  
  
  
  
  
  
  <g
   id="_598313744">
   <path
   id="_598360896"
   class="fil5"
   d="m 12.8459,45.5374 h 1.8542 c 0,0 -2.0574,-5.7912 -2.0574,-5.7912 -0.2286,-0.6604 -0.7366,-0.762 -0.9144,-0.762 H 9.9249 c 0.2794,0.2286 0.381,0.381 0.381,0.6096 0,0.127 -0.0254,0.2286 -0.1778,0.6858 l -1.778,5.2578 h 1.2192 l 0.5334,-1.6256 h 2.1844 z m -0.9144,-2.6416 h -1.4986 l 0.7366,-2.2352 z" />
   <path
   id="_598314560"
   class="fil5"
   d="m 20.4151,44.623 v -2.1082 c 0,-0.381 -0.1016,-0.6096 -0.381,-0.8636 h 1.3462 c 0.4064,0 0.7874,0.3556 0.7874,0.7874 v 2.9718 c -0.6604,0.1778 -1.3462,0.2794 -1.9558,0.2794 -2.3368,0 -3.81,-1.3462 -3.81,-3.3528 0,-1.9812 1.4986,-3.5052 3.8608,-3.5052 0.5334,0 1.0414,0.0762 1.4986,0.254 v 1.3208 c -0.4064,-0.2794 -0.9398,-0.4318 -1.4986,-0.4318 -1.143,0 -2.032,0.762 -2.032,2.2098 0,1.524 0.6604,2.4638 1.7526,2.4638 0.127,0 0.2794,0 0.4318,-0.0254 z" />
   <path
   id="_598314800"
   class="fil5"
   d="m 26.8413,39.8224 c 0,-0.4572 -0.381,-0.8382 -0.8382,-0.8382 h -1.2954 c 0.2794,0.254 0.3556,0.4572 0.3556,0.8636 v 5.6896 h 1.778 v -2.7432 h 2.0066 v 2.7432 h 1.7526 v -6.5278 h -1.7526 v 2.667 h -2.0066 z" />
   <path
   id="_598314872"
   class="fil6"
   d="m 24.1997,34.6154 c 1.4732,-1.016 2.7432,-2.5654 2.7432,-5.842 V 9.063 h 1.4732 v 19.7104 c 0,3.6322 -1.8288,5.1054 -4.2164,5.842 z" />
   <path
   id="_598314728"
   class="fil6"
   d="m 25.3935,34.6154 c 1.3716,-0.6604 3.7338,-1.8288 3.7338,-5.842 V 9.063 h 1.4732 v 19.7104 c 0,4.9276 -3.8354,5.6388 -5.207,5.842 z" />
   <path
   id="_598314608"
   class="fil6"
   d="m 23.2853,34.6154 c 1.0922,-1.1176 1.4732,-3.302 1.4732,-6.223 V 9.063 h 1.4478 v 19.7104 c 0,3.2766 -1.0922,4.9276 -2.921,5.842 z" />
   <path
   id="_598314896"
   class="fil5"
   d="m 16.1733,2.5098 c 1.4732,0.9906 2.7432,2.54 2.7432,5.842 v 22.606 h 1.4732 V 8.3518 c 0,-3.6576 -1.8288,-5.1054 -4.2164,-5.842 z" />
   <path
   id="_598314752"
   class="fil5"
   d="m 17.3671,2.5098 c 1.3716,0.635 3.7338,1.8288 3.7338,5.842 v 22.606 h 1.4732 V 8.3518 c 0,-4.9276 -3.8354,-5.6642 -5.207,-5.842 z" />
   <path
   id="_598314272"
   class="fil5"
   d="m 15.2843,2.5098 c 1.0668,1.0922 1.4478,3.2766 1.4478,6.1976 v 22.2504 h 1.4478 V 8.3518 c 0,-3.2766 -1.0922,-4.9276 -2.8956,-5.842 z" />
   <path
   id="_598314056"
   class="fil7"
   d="M 15.0811,34.6154 C 13.6333,33.5994 12.3633,32.05 12.3633,28.7734 V 9.063 h -1.4732 v 19.7104 c 0,3.6322 1.8288,5.1054 4.191,5.842 z" />
   <path
   id="_598313816"
   class="fil7"
   d="M 13.9127,34.6154 C 12.5411,33.955 10.1535,32.7866 10.1535,28.7734 V 9.063 H 8.7057 v 19.7104 c 0,4.9276 3.8354,5.6388 5.207,5.842 z" />
   <path
   id="_598313768"
   class="fil7"
   d="m 15.9955,34.6154 c -1.0922,-1.1176 -1.4478,-3.302 -1.4478,-6.223 V 9.063 h -1.4732 v 19.7104 c 0,3.2766 1.0922,4.9276 2.921,5.842 z" />
  </g>
 </g>
</svg>
